<?xml version="1.0" encoding="utf-8"?>
<!-- Generator: Adobe Illustrator 25.3.1, SVG Export Plug-In . SVG Version: 6.00 Build 0)  -->
<svg version="1.1" id="Capa_1" xmlns="http://www.w3.org/2000/svg" xmlns:xlink="http://www.w3.org/1999/xlink" x="0px" y="0px"
	 viewBox="0 0 338.8 76.9" style="enable-background:new 0 0 338.8 76.9;" xml:space="preserve">
<style type="text/css">
	.st0{clip-path:url(#SVGID_2_);}
	.st1{fill:#FFFFFF;}
</style>
<g>
	<defs>
		<rect id="SVGID_1_" width="338.8" height="76.9"/>
	</defs>
	<clipPath id="SVGID_2_">
		<use xlink:href="#SVGID_1_"  style="overflow:visible;"/>
	</clipPath>
	<g id="Repeat_Grid_1" class="st0">
		<g id="Group_185" transform="translate(-44.248 -72.355)">
			<path id="Path_259" class="st1" d="M68.3,111c-1.8,5.2-0.4,7.2,4.7,7.2h19.8l-3.6,10.6H69.3c-11.6,0-15.4-7.2-11.7-18l7-20.5
				c3.7-10.8,12.3-18,23.9-18h19.9l-3.6,10.6H85.1c-5.1,0-7.8,2-9.6,7.2L68.3,111z M93,105.5H74.5l3.4-10h18.5L93,105.5z"/>
			<path id="Path_260" class="st1" d="M98.3,107.8c4-11.7,15.3-20.9,28-20.9h8.4l-3.5,10.3h-7.5c-6.6,0.1-12.5,4.3-14.7,10.6
				c-2,5.9,0.7,10.6,7.4,10.6h7.5l-3.6,10.4h-8.4C99.3,128.8,94.3,119.5,98.3,107.8"/>
			<path id="Path_261" class="st1" d="M204.2,85.8c11.7,0,16,7.7,12.2,18.7l-8.3,24.2h-10.7l8.4-24.5c0.8-2.4,1.9-8-5.2-8
				c-4.9,0.1-9.3,3.3-10.9,8l-8.4,24.5h-10.7l8.3-24.2C182.6,93.9,192.8,85.8,204.2,85.8"/>
			<path id="Path_262" class="st1" d="M325.2,128.8h-10.7l8.4-24.5c0.8-2.4,1.9-8-5.2-8c-4.9,0.1-9.3,3.3-10.9,8l-8.4,24.5h-10.7
				l8.4-24.5c0.8-2.4,2-8-5.1-8c-4.9,0.1-9.3,3.3-10.9,8l-8.4,24.5h-10.7l8.3-24.2c3.6-10.6,13.8-18.7,25.3-18.7
				c5.7,0,9.5,2.3,11.3,5.9c4.3-3.7,9.7-5.8,15.4-5.9c11.7,0,16,7.7,12.2,18.7L325.2,128.8z"/>
			<path id="Path_263" class="st1" d="M159.4,86.3c-11.7,0-24.3,9.5-28.3,21.1s2.2,21.1,13.9,21.1s24.3-9.4,28.3-21.1
				S171.1,86.3,159.4,86.3 M148.7,117.8c-5.7,0-8.8-4.6-6.8-10.4S150,97,155.8,97s8.8,4.6,6.8,10.4S154.4,117.8,148.7,117.8"/>
			<path id="Path_264" class="st1" d="M249.1,86.3c-11.7,0-24.3,9.5-28.3,21.1s2.2,21.1,13.9,21.1s24.3-9.4,28.3-21.1
				S260.8,86.3,249.1,86.3 M238.4,117.8c-5.7,0-8.8-4.6-6.8-10.4S239.7,97,245.4,97s8.8,4.6,6.8,10.4S244.1,117.8,238.4,117.8"/>
			<path id="Path_265" class="st1" d="M369.5,141.2c0.5,0,1,0.1,1.5,0.4c0.5,0.2,0.8,0.6,1.1,1.1c0.5,0.9,0.5,2,0,3
				c-0.3,0.5-0.6,0.8-1.1,1.1c-0.9,0.5-2,0.5-2.9,0c-0.5-0.3-0.8-0.6-1.1-1.1c-0.5-0.9-0.5-2,0-3c0.3-0.5,0.6-0.8,1.1-1.1
				C368.5,141.4,369,141.2,369.5,141.2 M369.5,141.8c-0.4,0-0.8,0.1-1.2,0.3c-0.4,0.2-0.7,0.5-0.9,0.9c-0.4,0.7-0.4,1.6,0,2.4
				c0.2,0.4,0.5,0.7,0.9,0.9c0.7,0.4,1.6,0.4,2.4,0c0.4-0.2,0.7-0.5,0.9-0.9c0.2-0.4,0.3-0.8,0.3-1.2c0-0.4-0.1-0.8-0.3-1.2
				c-0.2-0.4-0.5-0.7-0.9-0.9C370.4,141.9,370,141.8,369.5,141.8 M368.2,145.8v-3.1h0.6c0.6,0,0.9,0,1,0c0.2,0,0.3,0.1,0.5,0.1
				c0.1,0.1,0.2,0.2,0.3,0.3c0.2,0.3,0.2,0.7-0.1,1c-0.2,0.2-0.4,0.3-0.6,0.3c0.1,0,0.2,0.1,0.2,0.1c0.1,0.1,0.1,0.2,0.2,0.2
				c0,0,0.1,0.2,0.2,0.4l0.4,0.6h-0.8l-0.3-0.5c-0.1-0.2-0.3-0.5-0.4-0.6c-0.1-0.1-0.3-0.1-0.4-0.1h-0.2v1.3L368.2,145.8z
				 M368.8,144h0.3c0.2,0,0.5,0,0.7,0c0.1,0,0.2-0.1,0.2-0.1c0-0.1,0.1-0.2,0.1-0.2c0-0.1,0-0.2-0.1-0.2c-0.1-0.1-0.1-0.1-0.2-0.1
				c-0.2,0-0.5,0-0.7,0h-0.3L368.8,144z"/>
			<path id="Path_266" class="st1" d="M197.6,134.9l-3.6,14.2h5.8l3.6-14.2H197.6z"/>
			<path id="Path_267" class="st1" d="M49.7,134.9l-5.5,14.3h144.6l3.6-14.3H49.7z"/>
			<path id="Path_268" class="st1" d="M209.1,134.9l-3.6,14.2h3.4l3.6-14.2H209.1z"/>
			<path id="Path_269" class="st1" d="M219.3,134.9h-1.7l-3.6,14.2h1.8L219.3,134.9z"/>
			<path id="Path_270" class="st1" d="M368.3,130.2c-3.8,11.2-13.7,18.6-24.8,18.6c-9.1,0-14.5-6-13.1-14.5h11
				c-0.4,3.1,1.8,4.6,5.4,4.6c5.8,0,9.2-4.1,10.5-8l1.7-4.8c-3.1,2.1-6.8,3.3-10.6,3.4c-10.1,0-14.4-7.3-10.7-18.2l8.3-24.2h10.6
				l-8.3,24.2c-0.8,2.3-2,8.1,4.9,8.1c4.9-0.2,9.2-3.4,10.8-8.1l8.3-24.2h10.6L368.3,130.2z"/>
			<path id="Path_271" class="st1" d="M233.4,142.3c0.8,0.3,1.3,1.1,1.3,2c0,0.3,0,0.6-0.1,0.9l-0.4,2.1c-0.1,0.3-0.1,0.6-0.1,0.9
				c0,0.3,0,0.6,0.1,0.9h-2.7c0-0.2-0.1-0.5-0.1-0.7c0-0.3,0-0.6,0.1-0.8l0.4-2.3c0-0.2,0.1-0.4,0-0.6c0-1-0.6-1.4-1.7-1.4h-3.9
				l-1,5.8h-2.6l2.7-14.8h6.5c2.9,0,4.3,1.9,4.3,3.9C236.2,140,235.1,141.6,233.4,142.3 M231.4,136.8h-3.8l-0.7,4.1h3.9
				c1.7,0,2.7-0.9,2.7-2.5C233.5,137.5,232.7,136.8,231.4,136.8"/>
			<path id="Path_272" class="st1" d="M246.9,144.6h-8.2c0,1.4,1.2,2.5,2.6,2.4c0,0,0,0,0,0c0.9,0,1.8-0.4,2.3-1.2h2.9
				c-0.7,2.3-2.9,3.5-5.6,3.5c-2.6,0.1-4.9-2-4.9-4.7c0-0.1,0-0.2,0-0.4c0-3.8,2.4-6.5,6.1-6.5c2.6-0.1,4.8,2,4.9,4.7
				c0,0.1,0,0.2,0,0.4C247.1,143.4,247,144,246.9,144.6 M242,140.1c-1.5-0.1-2.8,0.9-3.1,2.3h5.4C244.4,141.1,243.3,140.1,242,140.1
				"/>
			<path id="Path_273" class="st1" d="M257.2,149h-2.6l1.2-6.4c0.3-1.4-0.4-2.3-1.7-2.3c-1.4,0-2.5,1-2.7,2.4l-1.1,6.3h-2.6l2-10.9
				h2.5l-0.2,1.1c0.8-0.8,1.9-1.3,3-1.3c2.6,0,4,1.9,3.5,4.7L257.2,149z"/>
			<path id="Path_274" class="st1" d="M265.6,140.4h-2l-0.8,4.1c-0.3,1.5,0.2,2.1,1.6,2.1c0,0,0.1,0,0.2,0l-0.4,2.4
				c-0.2,0-0.4,0-0.6,0c-3,0-3.7-2-3.3-4.5l0.8-4.1h-1.3l0.4-2.3h1.3l0.5-2.8h2.6l-0.5,2.8h2L265.6,140.4z"/>
			<path id="Path_275" class="st1" d="M281.9,149h-2.5l0.2-1.2c-0.9,1-2.1,1.5-3.4,1.4c-2.7,0-4.5-2.3-4.5-5c0-3.7,2.4-6.5,5.8-6.5
				c1.4,0,2.8,0.7,3.5,1.9l0.3-1.7h2.5L281.9,149z M277.8,140.2c-2.1,0-3.5,1.7-3.5,3.9c-0.1,1.4,1,2.7,2.4,2.8c0,0,0,0,0,0
				c2.1,0,3.4-1.7,3.4-3.9C280.4,141.6,279.3,140.3,277.8,140.2C277.9,140.2,277.9,140.2,277.8,140.2"/>
			<path id="Path_276" class="st1" d="M302.2,138.9c-0.5-1.5-1.8-2.5-3.4-2.4c-3.4,0-5.3,2.6-5.3,6c0,2.5,1.5,4.4,3.9,4.4
				c1.6,0.1,3.2-0.7,4-2.1h3c-1.1,2.9-4,4.8-7.2,4.6c-3.5,0.1-6.4-2.7-6.4-6.2c0-0.1,0-0.3,0-0.4c0-5,3.3-8.7,8.1-8.7
				c3-0.1,5.6,2,6.2,5L302.2,138.9z"/>
			<path id="Path_277" class="st1" d="M315.6,149h-2.5l0.2-1.2c-0.9,1-2.1,1.5-3.4,1.4c-2.7,0-4.5-2.3-4.5-5c0-3.7,2.4-6.5,5.8-6.5
				c1.4,0,2.8,0.7,3.5,1.9l0.3-1.7h2.5L315.6,149z M311.6,140.2c-2.1,0-3.4,1.7-3.4,3.9c-0.1,1.4,1,2.7,2.4,2.8c0,0,0,0,0.1,0
				c2.1,0,3.4-1.7,3.4-3.9C314.1,141.6,313.1,140.3,311.6,140.2C311.6,140.2,311.6,140.2,311.6,140.2"/>
			<path id="Path_278" class="st1" d="M325.3,140.5c-0.2,0-0.4,0-0.6,0c-2,0-3,1.1-3.3,3.1l-1,5.5h-2.6l2-10.9h2.5l-0.3,1.4
				c0.8-1,2-1.7,3.3-1.7c0.2,0,0.4,0,0.6,0L325.3,140.5z"/>
		</g>
	</g>
</g>
</svg>
